# xmcd
#
# Track frame offsets:
#	150
#	11978
#	20375
#	32943
#	44795
#	58868
#	74030
#	85503
#	96268
#	108483
#	120800
#	134013
#	144780
#	157380
#	169753
#	180918
#	193455
#	204360
#	216238
#	229530
#	241830
#	252965
#
# Disc length: 3494
#
# Revision: 3
# Processed by: cddbd v1.5.1PL0 Copyright (c) Steve Scherf et al.
# Submitted via: CDex 1.51
# Normalized: r2:DSETVAR1,TDELIM( - )
#
DISCID=410da416
DTITLE=Various Artist - King Master Series Sampler (Rhino Records)
DYEAR=1993
DGENRE=Blues
TTITLE0=Hank Ballard - The Twist
TTITLE1=Hank Ballard - Finger Poppin' Time
TTITLE2=Hank Ballard - Work With Me Annie
TTITLE3=Freddie King - Hide Away
TTITLE4=Freddie King - Have You Ever Loved A Woman?
TTITLE5=Freddie King - Going Down
TTITLE6=Billy Ward and His Dominoes - Sixty Minute Man
TTITLE7=Billy Ward and His Dominoes - Have Mercy Baby
TTITLE8=Billy Ward and His Dominoes - Rags To Riches
TTITLE9=Little Willie John - Fever
TTITLE10=Little Willie John - Sleep
TTITLE11=Little Willie John - I'm Shakin'
TTITLE12=Wynonie Harris - Good Rockin' Tonight
TTITLE13=Wynonie Harris - Bloodshot Eyes
TTITLE14=Wynonie Harris - Lovin' Machine
TTITLE15=The 5  Royales - Dedicated To The One I Love
TTITLE16=The 5  Royales - Laundromat Blues
TTITLE17=The 5  Royales - Think
TTITLE18=The 5  Royales - Monkey Hips And Rice
TTITLE19=Roy Brown - Rockin' At Midnight
TTITLE20=Roy Brown - Mighty Mighty Man
TTITLE21=Roy Brown - Let The Four Winds Blow
EXTD=YEAR: 1993
EXTT0=
EXTT1=
EXTT2=
EXTT3=
EXTT4=
EXTT5=
EXTT6=
EXTT7=
EXTT8=
EXTT9=
EXTT10=
EXTT11=
EXTT12=
EXTT13=
EXTT14=
EXTT15=
EXTT16=
EXTT17=
EXTT18=
EXTT19=
EXTT20=
EXTT21=
PLAYORDER=
